<svg width="124" height="124" viewBox="0 0 124 124" fill="none" xmlns="http://www.w3.org/2000/svg">
<path d="M34.6545 14H84.9238C89.6749 14 94.2333 15.8784 97.6051 19.2256L110 31.5301H34.6545V14Z" fill="black"/>
<path d="M14.052 93.4699H62.961H89.3978V111H41.3434C34.4456 111 27.8544 108.15 23.1295 103.125L14.052 93.4699Z" fill="black"/>
<path d="M14 40.0971C14 32.1397 17.7882 24.6577 24.2017 19.9474L32.2998 14V63.0173C32.2998 70.7949 28.68 78.1295 22.5067 82.8604L14 89.3795V40.0971Z" fill="black"/>
<path d="M91.7002 61.7176C91.7002 53.7602 95.4884 46.2782 101.902 41.5679L110 35.6205V84.6378C110 92.4154 106.38 99.75 100.207 104.481L91.7002 111V61.7176Z" fill="black"/>
</svg>
