<svg width="117" height="117" viewBox="0 0 117 117" fill="none" xmlns="http://www.w3.org/2000/svg">
<rect x="1.5" y="1.5" width="114" height="114" rx="15.5" fill="white" stroke="#E6E6E6" stroke-width="3"/>
<rect x="9" y="9" width="99" height="99" rx="8" fill="url(#paint0_linear_2903_18)"/>
<g filter="url(#filter0_i_2903_18)">
<path d="M9 56H108V100C108 104.418 104.418 108 100 108H17C12.5817 108 9 104.418 9 100V56Z" fill="url(#paint1_linear_2903_18)"/>
</g>
<path d="M10.5 57.5H106.5V100C106.5 103.59 103.59 106.5 100 106.5H17C13.4102 106.5 10.5 103.59 10.5 100V57.5Z" stroke="#38BDF9" stroke-width="3"/>
<g filter="url(#filter1_d_2903_18)">
<mask id="path-5-outside-1_2903_18" maskUnits="userSpaceOnUse" x="30" y="70" width="58" height="24" fill="black">
<rect fill="white" x="30" y="70" width="58" height="24"/>
<path d="M49.8622 78.7656H45.5071C45.4276 78.2022 45.2652 77.7017 45.0199 77.2642C44.7746 76.8201 44.4598 76.4422 44.0753 76.1307C43.6908 75.8191 43.2467 75.5805 42.7429 75.4148C42.2457 75.2491 41.7055 75.1662 41.1222 75.1662C40.0682 75.1662 39.1501 75.428 38.3679 75.9517C37.5857 76.4687 36.9792 77.2244 36.5483 78.2188C36.1174 79.2064 35.902 80.4062 35.902 81.8182C35.902 83.2699 36.1174 84.4896 36.5483 85.4773C36.9858 86.465 37.5956 87.2107 38.3778 87.7145C39.16 88.2183 40.0649 88.4702 41.0923 88.4702C41.669 88.4702 42.2027 88.3939 42.6932 88.2415C43.1903 88.089 43.6312 87.867 44.0156 87.5753C44.4001 87.277 44.7183 86.9157 44.9702 86.4915C45.2287 86.0672 45.4077 85.5833 45.5071 85.0398L49.8622 85.0597C49.7495 85.9943 49.4678 86.8958 49.017 87.7642C48.5729 88.6259 47.973 89.3982 47.2173 90.081C46.4683 90.7571 45.5734 91.294 44.5327 91.6918C43.4986 92.0829 42.3286 92.2784 41.0227 92.2784C39.2064 92.2784 37.5824 91.8674 36.1506 91.0455C34.7254 90.2235 33.5985 89.0336 32.7699 87.4759C31.9479 85.9181 31.5369 84.0322 31.5369 81.8182C31.5369 79.5975 31.9545 77.7083 32.7898 76.1506C33.625 74.5928 34.7585 73.4062 36.1903 72.5909C37.6222 71.7689 39.233 71.358 41.0227 71.358C42.2027 71.358 43.2964 71.5237 44.304 71.8551C45.3182 72.1866 46.2164 72.6705 46.9986 73.3068C47.7808 73.9366 48.4171 74.7088 48.9077 75.6236C49.4048 76.5384 49.723 77.5857 49.8622 78.7656ZM63.9964 77.4929C63.9169 76.6908 63.5755 76.0677 62.9723 75.6236C62.3691 75.1794 61.5504 74.9574 60.5163 74.9574C59.8137 74.9574 59.2204 75.0568 58.7365 75.2557C58.2526 75.4479 57.8814 75.7164 57.6229 76.0611C57.371 76.4058 57.245 76.7969 57.245 77.2344C57.2318 77.599 57.308 77.9171 57.4737 78.1889C57.6461 78.4607 57.8814 78.696 58.1797 78.8949C58.478 79.0871 58.8227 79.2562 59.2138 79.402C59.6049 79.5412 60.0225 79.6605 60.4666 79.7599L62.2962 80.1974C63.1844 80.3963 63.9998 80.6615 64.7422 80.9929C65.4846 81.3243 66.1276 81.732 66.6712 82.2159C67.2147 82.6998 67.6357 83.2699 67.9339 83.9261C68.2389 84.5824 68.3947 85.3348 68.4013 86.1832C68.3947 87.4295 68.0765 88.5099 67.4467 89.4247C66.8236 90.3329 65.9221 91.0388 64.7422 91.5426C63.5689 92.0398 62.1536 92.2884 60.4964 92.2884C58.8525 92.2884 57.4207 92.0365 56.201 91.5327C54.9879 91.0289 54.04 90.2831 53.3572 89.2955C52.6811 88.3011 52.3265 87.0715 52.2933 85.6065H56.4595C56.5059 86.2893 56.7015 86.8594 57.0462 87.3168C57.3975 87.7675 57.8648 88.1089 58.4482 88.3409C59.0381 88.5663 59.7043 88.679 60.4467 88.679C61.1759 88.679 61.8089 88.5729 62.3459 88.3608C62.8894 88.1487 63.3104 87.8537 63.6087 87.4759C63.907 87.098 64.0561 86.6638 64.0561 86.1733C64.0561 85.7159 63.9202 85.3314 63.6484 85.0199C63.3833 84.7083 62.9922 84.4432 62.4751 84.2244C61.9647 84.0057 61.3383 83.8068 60.5959 83.6278L58.3786 83.071C56.6617 82.6534 55.3061 82.0005 54.3118 81.1122C53.3175 80.224 52.8236 79.0275 52.8303 77.5227C52.8236 76.2898 53.1518 75.2126 53.8146 74.2912C54.4841 73.3698 55.4022 72.6506 56.5689 72.1335C57.7356 71.6165 59.0613 71.358 60.5462 71.358C62.0575 71.358 63.3767 71.6165 64.5036 72.1335C65.6371 72.6506 66.5187 73.3698 67.1484 74.2912C67.7782 75.2126 68.103 76.2798 68.1229 77.4929H63.9964ZM82.3441 77.4929C82.2646 76.6908 81.9232 76.0677 81.32 75.6236C80.7167 75.1794 79.8981 74.9574 78.864 74.9574C78.1613 74.9574 77.5681 75.0568 77.0842 75.2557C76.6003 75.4479 76.229 75.7164 75.9705 76.0611C75.7186 76.4058 75.5927 76.7969 75.5927 77.2344C75.5794 77.599 75.6557 77.9171 75.8214 78.1889C75.9937 78.4607 76.229 78.696 76.5273 78.8949C76.8256 79.0871 77.1703 79.2562 77.5614 79.402C77.9525 79.5412 78.3701 79.6605 78.8143 79.7599L80.6438 80.1974C81.5321 80.3963 82.3474 80.6615 83.0898 80.9929C83.8323 81.3243 84.4753 81.732 85.0188 82.2159C85.5624 82.6998 85.9833 83.2699 86.2816 83.9261C86.5865 84.5824 86.7423 85.3348 86.7489 86.1832C86.7423 87.4295 86.4241 88.5099 85.7944 89.4247C85.1713 90.3329 84.2698 91.0388 83.0898 91.5426C81.9165 92.0398 80.5013 92.2884 78.8441 92.2884C77.2002 92.2884 75.7683 92.0365 74.5487 91.5327C73.3356 91.0289 72.3877 90.2831 71.7049 89.2955C71.0288 88.3011 70.6741 87.0715 70.641 85.6065H74.8072C74.8536 86.2893 75.0491 86.8594 75.3938 87.3168C75.7451 87.7675 76.2125 88.1089 76.7958 88.3409C77.3858 88.5663 78.052 88.679 78.7944 88.679C79.5236 88.679 80.1566 88.5729 80.6935 88.3608C81.2371 88.1487 81.658 87.8537 81.9563 87.4759C82.2546 87.098 82.4038 86.6638 82.4038 86.1733C82.4038 85.7159 82.2679 85.3314 81.9961 85.0199C81.7309 84.7083 81.3398 84.4432 80.8228 84.2244C80.3124 84.0057 79.686 83.8068 78.9435 83.6278L76.7262 83.071C75.0094 82.6534 73.6538 82.0005 72.6594 81.1122C71.6651 80.224 71.1713 79.0275 71.1779 77.5227C71.1713 76.2898 71.4994 75.2126 72.1623 74.2912C72.8318 73.3698 73.7499 72.6506 74.9165 72.1335C76.0832 71.6165 77.409 71.358 78.8938 71.358C80.4052 71.358 81.7243 71.6165 82.8512 72.1335C83.9847 72.6506 84.8664 73.3698 85.4961 74.2912C86.1258 75.2126 86.4506 76.2798 86.4705 77.4929H82.3441Z"/>
</mask>
<path d="M49.8622 78.7656H45.5071C45.4276 78.2022 45.2652 77.7017 45.0199 77.2642C44.7746 76.8201 44.4598 76.4422 44.0753 76.1307C43.6908 75.8191 43.2467 75.5805 42.7429 75.4148C42.2457 75.2491 41.7055 75.1662 41.1222 75.1662C40.0682 75.1662 39.1501 75.428 38.3679 75.9517C37.5857 76.4687 36.9792 77.2244 36.5483 78.2188C36.1174 79.2064 35.902 80.4062 35.902 81.8182C35.902 83.2699 36.1174 84.4896 36.5483 85.4773C36.9858 86.465 37.5956 87.2107 38.3778 87.7145C39.16 88.2183 40.0649 88.4702 41.0923 88.4702C41.669 88.4702 42.2027 88.3939 42.6932 88.2415C43.1903 88.089 43.6312 87.867 44.0156 87.5753C44.4001 87.277 44.7183 86.9157 44.9702 86.4915C45.2287 86.0672 45.4077 85.5833 45.5071 85.0398L49.8622 85.0597C49.7495 85.9943 49.4678 86.8958 49.017 87.7642C48.5729 88.6259 47.973 89.3982 47.2173 90.081C46.4683 90.7571 45.5734 91.294 44.5327 91.6918C43.4986 92.0829 42.3286 92.2784 41.0227 92.2784C39.2064 92.2784 37.5824 91.8674 36.1506 91.0455C34.7254 90.2235 33.5985 89.0336 32.7699 87.4759C31.9479 85.9181 31.5369 84.0322 31.5369 81.8182C31.5369 79.5975 31.9545 77.7083 32.7898 76.1506C33.625 74.5928 34.7585 73.4062 36.1903 72.5909C37.6222 71.7689 39.233 71.358 41.0227 71.358C42.2027 71.358 43.2964 71.5237 44.304 71.8551C45.3182 72.1866 46.2164 72.6705 46.9986 73.3068C47.7808 73.9366 48.4171 74.7088 48.9077 75.6236C49.4048 76.5384 49.723 77.5857 49.8622 78.7656ZM63.9964 77.4929C63.9169 76.6908 63.5755 76.0677 62.9723 75.6236C62.3691 75.1794 61.5504 74.9574 60.5163 74.9574C59.8137 74.9574 59.2204 75.0568 58.7365 75.2557C58.2526 75.4479 57.8814 75.7164 57.6229 76.0611C57.371 76.4058 57.245 76.7969 57.245 77.2344C57.2318 77.599 57.308 77.9171 57.4737 78.1889C57.6461 78.4607 57.8814 78.696 58.1797 78.8949C58.478 79.0871 58.8227 79.2562 59.2138 79.402C59.6049 79.5412 60.0225 79.6605 60.4666 79.7599L62.2962 80.1974C63.1844 80.3963 63.9998 80.6615 64.7422 80.9929C65.4846 81.3243 66.1276 81.732 66.6712 82.2159C67.2147 82.6998 67.6357 83.2699 67.9339 83.9261C68.2389 84.5824 68.3947 85.3348 68.4013 86.1832C68.3947 87.4295 68.0765 88.5099 67.4467 89.4247C66.8236 90.3329 65.9221 91.0388 64.7422 91.5426C63.5689 92.0398 62.1536 92.2884 60.4964 92.2884C58.8525 92.2884 57.4207 92.0365 56.201 91.5327C54.9879 91.0289 54.04 90.2831 53.3572 89.2955C52.6811 88.3011 52.3265 87.0715 52.2933 85.6065H56.4595C56.5059 86.2893 56.7015 86.8594 57.0462 87.3168C57.3975 87.7675 57.8648 88.1089 58.4482 88.3409C59.0381 88.5663 59.7043 88.679 60.4467 88.679C61.1759 88.679 61.8089 88.5729 62.3459 88.3608C62.8894 88.1487 63.3104 87.8537 63.6087 87.4759C63.907 87.098 64.0561 86.6638 64.0561 86.1733C64.0561 85.7159 63.9202 85.3314 63.6484 85.0199C63.3833 84.7083 62.9922 84.4432 62.4751 84.2244C61.9647 84.0057 61.3383 83.8068 60.5959 83.6278L58.3786 83.071C56.6617 82.6534 55.3061 82.0005 54.3118 81.1122C53.3175 80.224 52.8236 79.0275 52.8303 77.5227C52.8236 76.2898 53.1518 75.2126 53.8146 74.2912C54.4841 73.3698 55.4022 72.6506 56.5689 72.1335C57.7356 71.6165 59.0613 71.358 60.5462 71.358C62.0575 71.358 63.3767 71.6165 64.5036 72.1335C65.6371 72.6506 66.5187 73.3698 67.1484 74.2912C67.7782 75.2126 68.103 76.2798 68.1229 77.4929H63.9964ZM82.3441 77.4929C82.2646 76.6908 81.9232 76.0677 81.32 75.6236C80.7167 75.1794 79.8981 74.9574 78.864 74.9574C78.1613 74.9574 77.5681 75.0568 77.0842 75.2557C76.6003 75.4479 76.229 75.7164 75.9705 76.0611C75.7186 76.4058 75.5927 76.7969 75.5927 77.2344C75.5794 77.599 75.6557 77.9171 75.8214 78.1889C75.9937 78.4607 76.229 78.696 76.5273 78.8949C76.8256 79.0871 77.1703 79.2562 77.5614 79.402C77.9525 79.5412 78.3701 79.6605 78.8143 79.7599L80.6438 80.1974C81.5321 80.3963 82.3474 80.6615 83.0898 80.9929C83.8323 81.3243 84.4753 81.732 85.0188 82.2159C85.5624 82.6998 85.9833 83.2699 86.2816 83.9261C86.5865 84.5824 86.7423 85.3348 86.7489 86.1832C86.7423 87.4295 86.4241 88.5099 85.7944 89.4247C85.1713 90.3329 84.2698 91.0388 83.0898 91.5426C81.9165 92.0398 80.5013 92.2884 78.8441 92.2884C77.2002 92.2884 75.7683 92.0365 74.5487 91.5327C73.3356 91.0289 72.3877 90.2831 71.7049 89.2955C71.0288 88.3011 70.6741 87.0715 70.641 85.6065H74.8072C74.8536 86.2893 75.0491 86.8594 75.3938 87.3168C75.7451 87.7675 76.2125 88.1089 76.7958 88.3409C77.3858 88.5663 78.052 88.679 78.7944 88.679C79.5236 88.679 80.1566 88.5729 80.6935 88.3608C81.2371 88.1487 81.658 87.8537 81.9563 87.4759C82.2546 87.098 82.4038 86.6638 82.4038 86.1733C82.4038 85.7159 82.2679 85.3314 81.9961 85.0199C81.7309 84.7083 81.3398 84.4432 80.8228 84.2244C80.3124 84.0057 79.686 83.8068 78.9435 83.6278L76.7262 83.071C75.0094 82.6534 73.6538 82.0005 72.6594 81.1122C71.6651 80.224 71.1713 79.0275 71.1779 77.5227C71.1713 76.2898 71.4994 75.2126 72.1623 74.2912C72.8318 73.3698 73.7499 72.6506 74.9165 72.1335C76.0832 71.6165 77.409 71.358 78.8938 71.358C80.4052 71.358 81.7243 71.6165 82.8512 72.1335C83.9847 72.6506 84.8664 73.3698 85.4961 74.2912C86.1258 75.2126 86.4506 76.2798 86.4705 77.4929H82.3441Z" fill="white"/>
<path d="M49.8622 78.7656V79.7656H50.9871L50.8553 78.6485L49.8622 78.7656ZM45.5071 78.7656L44.5169 78.9054L44.6384 79.7656H45.5071V78.7656ZM45.0199 77.2642L44.1445 77.7476L44.1476 77.7532L45.0199 77.2642ZM44.0753 76.1307L43.4457 76.9076L43.4457 76.9076L44.0753 76.1307ZM42.7429 75.4148L42.4267 76.3635L42.4304 76.3647L42.7429 75.4148ZM38.3679 75.9517L38.9193 76.7859L38.9242 76.7827L38.3679 75.9517ZM36.5483 78.2188L37.4649 78.6186L37.4659 78.6164L36.5483 78.2188ZM36.5483 85.4773L35.6317 85.8771L35.634 85.8823L36.5483 85.4773ZM38.3778 87.7145L37.8364 88.5552L37.8364 88.5552L38.3778 87.7145ZM42.6932 88.2415L42.4 87.2854L42.3964 87.2865L42.6932 88.2415ZM44.0156 87.5753L44.62 88.372L44.6286 88.3654L44.0156 87.5753ZM44.9702 86.4915L44.1162 85.9711L44.1103 85.9809L44.9702 86.4915ZM45.5071 85.0398L45.5117 84.0398L44.6741 84.036L44.5234 84.8598L45.5071 85.0398ZM49.8622 85.0597L50.855 85.1794L50.9894 84.0648L49.8668 84.0597L49.8622 85.0597ZM49.017 87.7642L48.1295 87.3035L48.1282 87.3061L49.017 87.7642ZM47.2173 90.081L47.8874 90.8233L47.8877 90.823L47.2173 90.081ZM44.5327 91.6918L44.8864 92.6271L44.8897 92.6259L44.5327 91.6918ZM36.1506 91.0455L35.651 91.9117L35.6527 91.9127L36.1506 91.0455ZM32.7699 87.4759L31.8855 87.9425L31.887 87.9455L32.7699 87.4759ZM32.7898 76.1506L33.6711 76.6231L33.6711 76.6231L32.7898 76.1506ZM36.1903 72.5909L36.6852 73.4599L36.6882 73.4582L36.1903 72.5909ZM44.304 71.8551L43.9915 72.805L43.9933 72.8056L44.304 71.8551ZM46.9986 73.3068L46.3675 74.0825L46.3715 74.0857L46.9986 73.3068ZM48.9077 75.6236L48.0264 76.0962L48.029 76.1011L48.9077 75.6236ZM49.8622 77.7656H45.5071V79.7656H49.8622V77.7656ZM46.4973 78.6258C46.4027 77.9561 46.2056 77.3343 45.8922 76.7752L44.1476 77.7532C44.3247 78.0691 44.4524 78.4483 44.5169 78.9054L46.4973 78.6258ZM45.8953 76.7808C45.5893 76.2268 45.192 75.7485 44.7049 75.3537L43.4457 76.9076C43.7275 77.136 43.9599 77.4133 44.1445 77.7476L45.8953 76.7808ZM44.7049 75.3537C44.2195 74.9604 43.6662 74.6658 43.0554 74.4648L42.4304 76.3647C42.8272 76.4952 43.1621 76.6778 43.4457 76.9076L44.7049 75.3537ZM43.0591 74.4661C42.4492 74.2628 41.8009 74.1662 41.1222 74.1662V76.1662C41.6101 76.1662 42.0423 76.2353 42.4267 76.3635L43.0591 74.4661ZM41.1222 74.1662C39.8947 74.1662 38.7777 74.4739 37.8116 75.1207L38.9242 76.7827C39.5225 76.3821 40.2417 76.1662 41.1222 76.1662V74.1662ZM37.8165 75.1175C36.8485 75.7574 36.1264 76.6772 35.6307 77.8211L37.4659 78.6164C37.8319 77.7716 38.3229 77.1801 38.9193 76.7859L37.8165 75.1175ZM35.6317 77.8189C35.1316 78.9653 34.902 80.3094 34.902 81.8182H36.902C36.902 80.5031 37.1033 79.4475 37.4649 78.6186L35.6317 77.8189ZM34.902 81.8182C34.902 83.3624 35.1303 84.7276 35.6317 85.8771L37.4649 85.0774C37.1046 84.2515 36.902 83.1774 36.902 81.8182H34.902ZM35.634 85.8823C36.1375 87.019 36.8649 87.9295 37.8364 88.5552L38.9193 86.8738C38.3264 86.4919 37.8341 85.9109 37.4626 85.0723L35.634 85.8823ZM37.8364 88.5552C38.7966 89.1737 39.8936 89.4702 41.0923 89.4702V87.4702C40.2361 87.4702 39.5234 87.2629 38.9193 86.8738L37.8364 88.5552ZM41.0923 89.4702C41.7575 89.4702 42.3924 89.3822 42.99 89.1964L42.3964 87.2865C42.0129 87.4057 41.5806 87.4702 41.0923 87.4702V89.4702ZM42.9864 89.1975C43.5871 89.0133 44.135 88.7399 44.62 88.372L43.4112 86.7786C43.1274 86.994 42.7936 87.1647 42.4 87.2854L42.9864 89.1975ZM44.6286 88.3654C45.1136 87.9891 45.515 87.5326 45.83 87.002L44.1103 85.9809C43.9215 86.2989 43.6866 86.5649 43.4026 86.7852L44.6286 88.3654ZM45.8241 87.0118C46.1531 86.4719 46.3718 85.8703 46.4908 85.2197L44.5234 84.8598C44.4436 85.2964 44.3043 85.6625 44.1162 85.9711L45.8241 87.0118ZM45.5025 86.0398L49.8576 86.0596L49.8668 84.0597L45.5117 84.0398L45.5025 86.0398ZM48.8694 84.94C48.7716 85.7509 48.5272 86.5373 48.1295 87.3035L49.9046 88.2249C50.4084 87.2543 50.7274 86.2377 50.855 85.1794L48.8694 84.94ZM48.1282 87.3061C47.7419 88.0555 47.2179 88.7328 46.5469 89.339L47.8877 90.823C48.7282 90.0636 49.4039 89.1964 49.9059 88.2223L48.1282 87.3061ZM46.5473 89.3387C45.8989 89.9239 45.1131 90.3994 44.1757 90.7577L44.8897 92.6259C46.0337 92.1887 47.0376 91.5903 47.8874 90.8233L46.5473 89.3387ZM44.1789 90.7564C43.2763 91.0978 42.2292 91.2784 41.0227 91.2784V93.2784C42.428 93.2784 43.7208 93.0679 44.8864 92.6271L44.1789 90.7564ZM41.0227 91.2784C39.3632 91.2784 37.9139 90.9047 36.6484 90.1782L35.6527 91.9127C37.2509 92.8302 39.0497 93.2784 41.0227 93.2784V91.2784ZM36.6502 90.1792C35.3992 89.4577 34.4 88.411 33.6528 87.0062L31.887 87.9455C32.797 89.6563 34.0515 90.9892 35.651 91.9117L36.6502 90.1792ZM33.6543 87.0092C32.9253 85.6276 32.5369 83.9105 32.5369 81.8182H30.5369C30.5369 84.1539 30.9705 86.2086 31.8855 87.9425L33.6543 87.0092ZM32.5369 81.8182C32.5369 79.721 32.9313 78.003 33.6711 76.6231L31.9085 75.678C30.9778 77.4137 30.5369 79.4741 30.5369 81.8182H32.5369ZM33.6711 76.6231C34.4241 75.2186 35.4289 74.1753 36.6852 73.4599L35.6955 71.7219C34.0881 72.6372 32.8259 73.967 31.9085 75.678L33.6711 76.6231ZM36.6882 73.4582C37.9559 72.7304 39.3925 72.358 41.0227 72.358V70.358C39.0734 70.358 37.2884 70.8075 35.6925 71.7237L36.6882 73.4582ZM41.0227 72.358C42.1083 72.358 43.0954 72.5103 43.9915 72.805L44.6165 70.9052C43.4974 70.5371 42.297 70.358 41.0227 70.358V72.358ZM43.9933 72.8056C44.8978 73.1012 45.6859 73.528 46.3675 74.0825L47.6297 72.5311C46.7468 71.8129 45.7386 71.2719 44.6146 70.9046L43.9933 72.8056ZM46.3715 74.0857C47.0457 74.6286 47.597 75.2954 48.0264 76.0962L49.789 75.151C49.2373 74.1222 48.5158 73.2445 47.6257 72.5279L46.3715 74.0857ZM48.029 76.1011C48.4575 76.8895 48.7427 77.8115 48.8691 78.8828L50.8553 78.6485C50.7033 77.3599 50.3521 76.1872 49.7863 75.1461L48.029 76.1011ZM63.9964 77.4929L63.0013 77.5916L63.0907 78.4929H63.9964V77.4929ZM58.7365 75.2557L59.1057 76.1851L59.1166 76.1806L58.7365 75.2557ZM57.6229 76.0611L56.8228 75.461L56.8155 75.4711L57.6229 76.0611ZM57.245 77.2344L58.2444 77.2707L58.245 77.2526V77.2344H57.245ZM57.4737 78.1889L56.6199 78.7095L56.6245 78.717L56.6292 78.7245L57.4737 78.1889ZM58.1797 78.8949L57.625 79.7269L57.6315 79.7312L57.638 79.7355L58.1797 78.8949ZM59.2138 79.402L58.8644 80.339L58.8714 80.3416L58.8785 80.3441L59.2138 79.402ZM60.4666 79.7599L60.6992 78.7874L60.6922 78.7857L60.6851 78.7841L60.4666 79.7599ZM62.2962 80.1974L62.0636 81.17L62.0706 81.1717L62.0777 81.1733L62.2962 80.1974ZM64.7422 80.9929L64.3345 81.906L64.3345 81.906L64.7422 80.9929ZM66.6712 82.2159L67.3361 81.469L67.3361 81.469L66.6712 82.2159ZM67.9339 83.9261L67.0236 84.34L67.0271 84.3475L67.9339 83.9261ZM68.4013 86.1832L69.4014 86.1886L69.4012 86.1754L68.4013 86.1832ZM67.4467 89.4247L66.623 88.8577L66.6222 88.859L67.4467 89.4247ZM64.7422 91.5426L65.1323 92.4634L65.1349 92.4623L64.7422 91.5426ZM56.201 91.5327L55.8175 92.4562L55.8192 92.4569L56.201 91.5327ZM53.3572 89.2955L52.5303 89.8578L52.5347 89.8641L53.3572 89.2955ZM52.2933 85.6065V84.6065H51.2704L51.2936 85.6292L52.2933 85.6065ZM56.4595 85.6065L57.4572 85.5387L57.3939 84.6065H56.4595V85.6065ZM57.0462 87.3168L56.2476 87.9186L56.2524 87.9251L56.2574 87.9315L57.0462 87.3168ZM58.4482 88.3409L58.0785 89.2702L58.0913 89.2751L58.4482 88.3409ZM62.3459 88.3608L61.9823 87.4292L61.9785 87.4307L62.3459 88.3608ZM63.6087 87.4759L64.3935 88.0955L64.3935 88.0955L63.6087 87.4759ZM63.6484 85.0199L62.8868 85.6681L62.8949 85.6773L63.6484 85.0199ZM62.4751 84.2244L62.0812 85.1436L62.0855 85.1454L62.4751 84.2244ZM60.5959 83.6278L60.3523 84.5978L60.3615 84.6L60.5959 83.6278ZM58.3786 83.071L58.6221 82.1011L58.6149 82.0994L58.3786 83.071ZM54.3118 81.1122L53.6456 81.858L53.6456 81.858L54.3118 81.1122ZM52.8303 77.5227L53.8303 77.5271L53.8302 77.5173L52.8303 77.5227ZM53.8146 74.2912L53.0056 73.7034L53.0029 73.7072L53.8146 74.2912ZM64.5036 72.1335L64.0865 73.0424L64.0885 73.0433L64.5036 72.1335ZM67.1484 74.2912L66.3228 74.8555L66.3228 74.8555L67.1484 74.2912ZM68.1229 77.4929V78.4929H69.1394L69.1227 77.4765L68.1229 77.4929ZM64.9916 77.3942C64.8865 76.3343 64.4153 75.4442 63.5652 74.8183L62.3794 76.4289C62.7357 76.6912 62.9474 77.0473 63.0013 77.5916L64.9916 77.3942ZM63.5652 74.8183C62.7357 74.2075 61.6843 73.9574 60.5163 73.9574V75.9574C61.4165 75.9574 62.0025 76.1514 62.3794 76.4289L63.5652 74.8183ZM60.5163 73.9574C59.7255 73.9574 58.9946 74.0685 58.3564 74.3307L59.1166 76.1806C59.4463 76.0452 59.9019 75.9574 60.5163 75.9574V73.9574ZM58.3673 74.3263C57.748 74.5723 57.213 74.9409 56.8229 75.4611L58.4229 76.6611C58.5498 76.4918 58.7572 76.3235 59.1057 76.185L58.3673 74.3263ZM56.8155 75.4711C56.4351 75.9915 56.245 76.5904 56.245 77.2344H58.245C58.245 77.0034 58.3068 76.82 58.4303 76.6511L56.8155 75.4711ZM56.2457 77.198C56.2264 77.7291 56.3378 78.2469 56.6199 78.7095L58.3275 77.6683C58.2782 77.5874 58.2372 77.4688 58.2444 77.2707L56.2457 77.198ZM56.6292 78.7245C56.8845 79.127 57.2237 79.4594 57.625 79.7269L58.7344 78.0628C58.539 77.9326 58.4076 77.7944 58.3182 77.6534L56.6292 78.7245ZM57.638 79.7355C58.0062 79.9728 58.4174 80.1723 58.8644 80.339L59.5632 78.465C59.228 78.34 58.9498 78.2015 58.7214 78.0543L57.638 79.7355ZM58.8785 80.3441C59.3112 80.4981 59.7682 80.6283 60.2481 80.7358L60.6851 78.7841C60.2768 78.6927 59.8985 78.5843 59.5491 78.4599L58.8785 80.3441ZM60.234 80.7325L62.0636 81.17L62.5287 79.2249L60.6992 78.7874L60.234 80.7325ZM62.0777 81.1733C62.9086 81.3593 63.6596 81.6047 64.3345 81.906L65.1498 80.0798C64.3399 79.7182 63.4603 79.4333 62.5146 79.2216L62.0777 81.1733ZM64.3345 81.906C64.994 82.2005 65.5478 82.5547 66.0062 82.9628L67.3361 81.469C66.7074 80.9093 65.9752 80.4482 65.1498 80.0798L64.3345 81.906ZM66.0062 82.9628C66.4467 83.3549 66.7835 83.8119 67.0236 84.3399L68.8443 83.5123C68.4878 82.7279 67.9828 82.0447 67.3361 81.469L66.0062 82.9628ZM67.0271 84.3475C67.2623 84.8537 67.3956 85.4611 67.4013 86.191L69.4012 86.1754C69.3937 85.2085 69.2155 84.3111 68.8408 83.5048L67.0271 84.3475ZM67.4013 86.1779C67.3956 87.2489 67.1254 88.128 66.623 88.8577L68.2704 89.9918C69.0276 88.8919 69.3937 87.61 69.4013 86.1886L67.4013 86.1779ZM66.6222 88.859C66.1232 89.5861 65.3841 90.1812 64.3495 90.6229L65.1349 92.4623C66.4601 91.8965 67.524 91.0796 68.2713 89.9905L66.6222 88.859ZM64.352 90.6219C63.3332 91.0536 62.058 91.2884 60.4964 91.2884V93.2884C62.2493 93.2884 63.8046 93.026 65.1323 92.4634L64.352 90.6219ZM60.4964 91.2884C58.9524 91.2884 57.6556 91.0515 56.5828 90.6084L55.8192 92.4569C57.1858 93.0214 58.7526 93.2884 60.4964 93.2884V91.2884ZM56.5845 90.6091C55.5315 90.1718 54.7432 89.5417 54.1798 88.7268L52.5347 89.8641C53.3368 91.0245 54.4443 91.8859 55.8175 92.4562L56.5845 90.6091ZM54.1842 88.7331C53.6381 87.9301 53.3228 86.8985 53.2931 85.5839L51.2936 85.6292C51.3301 87.2445 51.7241 88.6722 52.5303 89.8578L54.1842 88.7331ZM52.2933 86.6065H56.4595V84.6065H52.2933V86.6065ZM55.4618 85.6743C55.5188 86.5124 55.765 87.2783 56.2476 87.9186L57.8448 86.7149C57.6379 86.4405 57.4931 86.0662 57.4572 85.5387L55.4618 85.6743ZM56.2574 87.9315C56.7286 88.536 57.3468 88.9791 58.0786 89.2701L58.8177 87.4117C58.3828 87.2387 58.0664 86.999 57.8349 86.702L56.2574 87.9315ZM58.0913 89.2751C58.8133 89.5509 59.6033 89.679 60.4467 89.679V87.679C59.8053 87.679 59.2629 87.5817 58.805 87.4068L58.0913 89.2751ZM60.4467 89.679C61.2699 89.679 62.0331 89.5596 62.7133 89.2908L61.9785 87.4307C61.5848 87.5863 61.0819 87.679 60.4467 87.679V89.679ZM62.7094 89.2924C63.3836 89.0293 63.9638 88.6398 64.3935 88.0955L62.8238 86.8562C62.6569 87.0676 62.3953 87.2681 61.9823 87.4292L62.7094 89.2924ZM64.3935 88.0955C64.834 87.5376 65.0561 86.8841 65.0561 86.1733H63.0561C63.0561 86.4436 62.9799 86.6585 62.8238 86.8562L64.3935 88.0955ZM65.0561 86.1733C65.0561 85.5018 64.8499 84.876 64.402 84.3625L62.8949 85.6773C62.9905 85.7869 63.0561 85.93 63.0561 86.1733H65.0561ZM64.41 84.3718C64.0134 83.9058 63.4748 83.5615 62.8648 83.3035L62.0855 85.1454C62.5096 85.3248 62.7532 85.5109 62.8869 85.668L64.41 84.3718ZM62.8691 83.3053C62.2919 83.058 61.6085 82.8433 60.8302 82.6557L60.3615 84.6C61.0681 84.7703 61.6375 84.9534 62.0812 85.1436L62.8691 83.3053ZM60.8394 82.658L58.6221 82.1011L58.135 84.0409L60.3523 84.5977L60.8394 82.658ZM58.6149 82.0994C57.0077 81.7084 55.8164 81.1154 54.978 80.3665L53.6456 81.858C54.7958 82.8855 56.3157 83.5984 58.1422 84.0427L58.6149 82.0994ZM54.978 80.3665C54.226 79.6946 53.8247 78.7865 53.8302 77.5271L51.8303 77.5183C51.8226 79.2684 52.409 80.7533 53.6456 81.858L54.978 80.3665ZM53.8302 77.5173C53.8246 76.4766 54.0978 75.61 54.6264 74.8752L53.0029 73.7072C52.2057 74.8152 51.8226 76.103 51.8303 77.5281L53.8302 77.5173ZM54.6236 74.879C55.1776 74.1166 55.9486 73.5022 56.9741 73.0478L56.1637 71.2193C54.8559 71.7989 53.7907 72.6229 53.0056 73.7034L54.6236 74.879ZM56.9741 73.0478C57.994 72.5958 59.1782 72.358 60.5462 72.358V70.358C58.9444 70.358 57.4772 70.6372 56.1637 71.2193L56.9741 73.0478ZM60.5462 72.358C61.9445 72.358 63.1159 72.5971 64.0865 73.0424L64.9206 71.2246C63.6374 70.6359 62.1706 70.358 60.5462 70.358V72.358ZM64.0885 73.0433C65.0761 73.4938 65.8076 74.1015 66.3228 74.8555L67.974 73.7269C67.2299 72.6381 66.1981 71.8073 64.9186 71.2237L64.0885 73.0433ZM66.3228 74.8555C66.8325 75.6011 67.106 76.4742 67.123 77.5093L69.1227 77.4765C69.0999 76.0855 68.7239 74.8241 67.974 73.7269L66.3228 74.8555ZM68.1229 76.4929H63.9964V78.4929H68.1229V76.4929ZM82.3441 77.4929L81.349 77.5916L81.4384 78.4929H82.3441V77.4929ZM77.0842 75.2557L77.4534 76.1851L77.4643 76.1806L77.0842 75.2557ZM75.9705 76.0611L75.1705 75.461L75.1631 75.4711L75.9705 76.0611ZM75.5927 77.2344L76.592 77.2707L76.5927 77.2526V77.2344H75.5927ZM75.8214 78.1889L74.9676 78.7095L74.9722 78.717L74.9769 78.7245L75.8214 78.1889ZM76.5273 78.8949L75.9726 79.7269L75.9791 79.7312L75.9856 79.7355L76.5273 78.8949ZM77.5614 79.402L77.2121 80.339L77.2191 80.3416L77.2261 80.3441L77.5614 79.402ZM78.8143 79.7599L79.0468 78.7874L79.0398 78.7857L79.0327 78.7841L78.8143 79.7599ZM80.6438 80.1974L80.4112 81.17L80.4183 81.1717L80.4253 81.1733L80.6438 80.1974ZM83.0898 80.9929L82.6822 81.906L82.6822 81.906L83.0898 80.9929ZM85.0188 82.2159L85.6838 81.469L85.6838 81.469L85.0188 82.2159ZM86.2816 83.9261L85.3712 84.34L85.3747 84.3475L86.2816 83.9261ZM86.7489 86.1832L87.749 86.1886L87.7489 86.1754L86.7489 86.1832ZM85.7944 89.4247L84.9707 88.8577L84.9698 88.859L85.7944 89.4247ZM83.0898 91.5426L83.48 92.4634L83.4825 92.4623L83.0898 91.5426ZM74.5487 91.5327L74.1651 92.4562L74.1669 92.4569L74.5487 91.5327ZM71.7049 89.2955L70.8779 89.8578L70.8823 89.8641L71.7049 89.2955ZM70.641 85.6065V84.6065H69.6181L69.6412 85.6292L70.641 85.6065ZM74.8072 85.6065L75.8049 85.5387L75.7415 84.6065H74.8072V85.6065ZM75.3938 87.3168L74.5952 87.9186L74.6001 87.9251L74.6051 87.9315L75.3938 87.3168ZM76.7958 88.3409L76.4262 89.2702L76.4389 89.2751L76.7958 88.3409ZM80.6935 88.3608L80.33 87.4292L80.3261 87.4307L80.6935 88.3608ZM81.9563 87.4759L82.7412 88.0955L82.7412 88.0955L81.9563 87.4759ZM81.9961 85.0199L81.2345 85.6681L81.2425 85.6773L81.9961 85.0199ZM80.8228 84.2244L80.4289 85.1436L80.4332 85.1454L80.8228 84.2244ZM78.9435 83.6278L78.7 84.5978L78.7092 84.6L78.9435 83.6278ZM76.7262 83.071L76.9698 82.1011L76.9626 82.0994L76.7262 83.071ZM72.6594 81.1122L71.9932 81.858L71.9932 81.858L72.6594 81.1122ZM71.1779 77.5227L72.178 77.5271L72.1779 77.5173L71.1779 77.5227ZM72.1623 74.2912L71.3533 73.7034L71.3505 73.7072L72.1623 74.2912ZM82.8512 72.1335L82.4342 73.0424L82.4362 73.0433L82.8512 72.1335ZM85.4961 74.2912L84.6705 74.8555L84.6705 74.8555L85.4961 74.2912ZM86.4705 77.4929V78.4929H87.4871L87.4704 77.4765L86.4705 77.4929ZM83.3392 77.3942C83.2341 76.3343 82.763 75.4442 81.9129 74.8183L80.7271 76.4289C81.0834 76.6912 81.295 77.0473 81.349 77.5916L83.3392 77.3942ZM81.9129 74.8183C81.0833 74.2075 80.032 73.9574 78.864 73.9574V75.9574C79.7642 75.9574 80.3502 76.1514 80.7271 76.4289L81.9129 74.8183ZM78.864 73.9574C78.0731 73.9574 77.3422 74.0685 76.704 74.3307L77.4643 76.1806C77.7939 76.0452 78.2496 75.9574 78.864 75.9574V73.9574ZM76.715 74.3263C76.0957 74.5723 75.5606 74.9409 75.1705 75.4611L76.7705 76.6611C76.8975 76.4918 77.1048 76.3235 77.4534 76.185L76.715 74.3263ZM75.1631 75.4711C74.7828 75.9915 74.5927 76.5904 74.5927 77.2344H76.5927C76.5927 77.0034 76.6545 76.82 76.7779 76.6511L75.1631 75.4711ZM74.5933 77.198C74.574 77.7291 74.6855 78.2469 74.9676 78.7095L76.6752 77.6683C76.6258 77.5874 76.5848 77.4688 76.592 77.2707L74.5933 77.198ZM74.9769 78.7245C75.2322 79.127 75.5714 79.4594 75.9726 79.7269L77.082 78.0628C76.8867 77.9326 76.7553 77.7944 76.6659 77.6534L74.9769 78.7245ZM75.9856 79.7355C76.3539 79.9728 76.765 80.1723 77.2121 80.339L77.9108 78.465C77.5757 78.34 77.2974 78.2015 77.069 78.0543L75.9856 79.7355ZM77.2261 80.3441C77.6589 80.4981 78.1158 80.6283 78.5958 80.7358L79.0327 78.7841C78.6245 78.6927 78.2462 78.5843 77.8968 78.4599L77.2261 80.3441ZM78.5817 80.7325L80.4112 81.17L80.8764 79.2249L79.0468 78.7874L78.5817 80.7325ZM80.4253 81.1733C81.2562 81.3593 82.0073 81.6047 82.6822 81.906L83.4975 80.0798C82.6875 79.7182 81.8079 79.4333 80.8623 79.2216L80.4253 81.1733ZM82.6822 81.906C83.3417 82.2005 83.8955 82.5547 84.3539 82.9628L85.6838 81.469C85.0551 80.9093 84.3228 80.4482 83.4975 80.0798L82.6822 81.906ZM84.3539 82.9628C84.7943 83.3549 85.1312 83.8119 85.3712 84.3399L87.192 83.5123C86.8354 82.7279 86.3304 82.0447 85.6838 81.469L84.3539 82.9628ZM85.3747 84.3475C85.6099 84.8537 85.7433 85.4611 85.749 86.191L87.7489 86.1754C87.7414 85.2085 87.5632 84.3111 87.1885 83.5048L85.3747 84.3475ZM85.7489 86.1779C85.7433 87.2489 85.473 88.128 84.9707 88.8577L86.6181 89.9918C87.3752 88.8919 87.7414 87.61 87.7489 86.1886L85.7489 86.1779ZM84.9698 88.859C84.4709 89.5861 83.7318 90.1812 82.6972 90.6229L83.4825 92.4623C84.8077 91.8965 85.8717 91.0796 86.619 89.9905L84.9698 88.859ZM82.6997 90.6219C81.6809 91.0536 80.4057 91.2884 78.8441 91.2884V93.2884C80.5969 93.2884 82.1522 93.026 83.48 92.4634L82.6997 90.6219ZM78.8441 91.2884C77.3 91.2884 76.0033 91.0515 74.9304 90.6084L74.1669 92.4569C75.5334 93.0214 77.1003 93.2884 78.8441 93.2884V91.2884ZM74.9322 90.6091C73.8792 90.1718 73.0908 89.5417 72.5275 88.7268L70.8823 89.8641C71.6845 91.0245 72.792 91.8859 74.1651 92.4562L74.9322 90.6091ZM72.5318 88.7331C71.9858 87.9301 71.6705 86.8985 71.6407 85.5839L69.6412 85.6292C69.6778 87.2445 70.0718 88.6722 70.878 89.8578L72.5318 88.7331ZM70.641 86.6065H74.8072V84.6065H70.641V86.6065ZM73.8095 85.6743C73.8664 86.5124 74.1126 87.2783 74.5952 87.9186L76.1924 86.7149C75.9856 86.4405 75.8407 86.0662 75.8049 85.5387L73.8095 85.6743ZM74.6051 87.9315C75.0763 88.536 75.6945 88.9791 76.4262 89.2701L77.1654 87.4117C76.7305 87.2387 76.414 86.999 76.1825 86.702L74.6051 87.9315ZM76.4389 89.2751C77.1609 89.5509 77.951 89.679 78.7944 89.679V87.679C78.1529 87.679 77.6106 87.5817 77.1527 87.4068L76.4389 89.2751ZM78.7944 89.679C79.6176 89.679 80.3807 89.5596 81.061 89.2908L80.3261 87.4307C79.9325 87.5863 79.4295 87.679 78.7944 87.679V89.679ZM81.0571 89.2924C81.7312 89.0293 82.3115 88.6398 82.7412 88.0955L81.1714 86.8562C81.0046 87.0676 80.743 87.2681 80.33 87.4292L81.0571 89.2924ZM82.7412 88.0955C83.1817 87.5376 83.4038 86.8841 83.4038 86.1733H81.4038C81.4038 86.4436 81.3276 86.6585 81.1714 86.8562L82.7412 88.0955ZM83.4038 86.1733C83.4038 85.5018 83.1976 84.876 82.7497 84.3625L81.2425 85.6773C81.3382 85.7869 81.4038 85.93 81.4038 86.1733H83.4038ZM82.7576 84.3718C82.3611 83.9058 81.8224 83.5615 81.2124 83.3035L80.4332 85.1454C80.8573 85.3248 81.1008 85.5109 81.2346 85.668L82.7576 84.3718ZM81.2167 83.3053C80.6396 83.058 79.9562 82.8433 79.1779 82.6557L78.7092 84.6C79.4157 84.7703 79.9852 84.9534 80.4289 85.1436L81.2167 83.3053ZM79.1871 82.658L76.9698 82.1011L76.4826 84.0409L78.7 84.5977L79.1871 82.658ZM76.9626 82.0994C75.3554 81.7084 74.1641 81.1154 73.3257 80.3665L71.9932 81.858C73.1435 82.8855 74.6633 83.5984 76.4899 84.0427L76.9626 82.0994ZM73.3257 80.3665C72.5736 79.6946 72.1724 78.7865 72.1779 77.5271L70.1779 77.5183C70.1702 79.2684 70.7566 80.7533 71.9932 81.858L73.3257 80.3665ZM72.1779 77.5173C72.1723 76.4766 72.4454 75.61 72.974 74.8752L71.3505 73.7072C70.5534 74.8152 70.1703 76.103 70.1779 77.5281L72.1779 77.5173ZM72.9713 74.879C73.5252 74.1166 74.2962 73.5022 75.3217 73.0478L74.5114 71.2193C73.2035 71.7989 72.1384 72.6229 71.3533 73.7034L72.9713 74.879ZM75.3217 73.0478C76.3416 72.5958 77.5259 72.358 78.8938 72.358V70.358C77.292 70.358 75.8248 70.6372 74.5114 71.2193L75.3217 73.0478ZM78.8938 72.358C80.2921 72.358 81.4635 72.5971 82.4342 73.0424L83.2682 71.2246C81.9851 70.6359 80.5183 70.358 78.8938 70.358V72.358ZM82.4362 73.0433C83.4237 73.4938 84.1552 74.1015 84.6705 74.8555L86.3217 73.7269C85.5775 72.6381 84.5457 71.8073 83.2662 71.2237L82.4362 73.0433ZM84.6705 74.8555C85.1801 75.6011 85.4537 76.4742 85.4707 77.5093L87.4704 77.4765C87.4476 76.0855 87.0715 74.8241 86.3217 73.7269L84.6705 74.8555ZM86.4705 76.4929H82.3441V78.4929H86.4705V76.4929Z" fill="#38BDF9" mask="url(#path-5-outside-1_2903_18)"/>
</g>
<defs>
<filter id="filter0_i_2903_18" x="9" y="54" width="99" height="54" filterUnits="userSpaceOnUse" color-interpolation-filters="sRGB">
<feFlood flood-opacity="0" result="BackgroundImageFix"/>
<feBlend mode="normal" in="SourceGraphic" in2="BackgroundImageFix" result="shape"/>
<feColorMatrix in="SourceAlpha" type="matrix" values="0 0 0 0 0 0 0 0 0 0 0 0 0 0 0 0 0 0 127 0" result="hardAlpha"/>
<feOffset dy="-2"/>
<feGaussianBlur stdDeviation="2"/>
<feComposite in2="hardAlpha" operator="arithmetic" k2="-1" k3="1"/>
<feColorMatrix type="matrix" values="0 0 0 0 1 0 0 0 0 1 0 0 0 0 1 0 0 0 0.5 0"/>
<feBlend mode="normal" in2="shape" result="effect1_innerShadow_2903_18"/>
</filter>
<filter id="filter1_d_2903_18" x="28.5371" y="70.3579" width="61.2119" height="26.9304" filterUnits="userSpaceOnUse" color-interpolation-filters="sRGB">
<feFlood flood-opacity="0" result="BackgroundImageFix"/>
<feColorMatrix in="SourceAlpha" type="matrix" values="0 0 0 0 0 0 0 0 0 0 0 0 0 0 0 0 0 0 127 0" result="hardAlpha"/>
<feOffset dy="2"/>
<feGaussianBlur stdDeviation="1.5"/>
<feComposite in2="hardAlpha" operator="out"/>
<feColorMatrix type="matrix" values="0 0 0 0 0 0 0 0 0 0 0 0 0 0 0 0 0 0 0.22 0"/>
<feBlend mode="normal" in2="BackgroundImageFix" result="effect1_dropShadow_2903_18"/>
<feBlend mode="normal" in="SourceGraphic" in2="effect1_dropShadow_2903_18" result="shape"/>
</filter>
<linearGradient id="paint0_linear_2903_18" x1="58.5" y1="9" x2="58.5" y2="108" gradientUnits="userSpaceOnUse">
<stop stop-color="#F4F4F4"/>
<stop offset="1" stop-color="white"/>
</linearGradient>
<linearGradient id="paint1_linear_2903_18" x1="58.5" y1="56" x2="58.5" y2="108" gradientUnits="userSpaceOnUse">
<stop stop-color="#38BDF9"/>
<stop offset="1" stop-color="#61CCFD"/>
</linearGradient>
</defs>
</svg>
