<svg width="117" height="117" viewBox="0 0 117 117" fill="none" xmlns="http://www.w3.org/2000/svg">
<rect x="1.5" y="1.5" width="114" height="114" rx="15.5" fill="white" stroke="#E6E6E6" stroke-width="3"/>
<rect x="8" y="9" width="100" height="99" rx="8" fill="url(#paint0_linear_1078_41)"/>
<g filter="url(#filter0_i_1078_41)">
<path d="M9 56H108V100C108 104.418 104.418 108 100 108H17C12.5817 108 9 104.418 9 100V56Z" fill="url(#paint1_linear_1078_41)"/>
</g>
<path d="M10.5 57.5H106.5V100C106.5 103.59 103.59 106.5 100 106.5H17C13.4102 106.5 10.5 103.59 10.5 100V57.5Z" stroke="#1E7447" stroke-width="3"/>
<g filter="url(#filter1_d_1078_41)">
<mask id="path-5-outside-1_1078_41" maskUnits="userSpaceOnUse" x="17" y="70" width="85" height="24" fill="black">
<rect fill="white" x="17" y="70" width="85" height="24"/>
<path d="M25.4691 92H18.2504V71.6364H25.5288C27.5771 71.6364 29.3403 72.044 30.8185 72.8594C32.2968 73.6681 33.4336 74.8314 34.229 76.3494C35.0311 77.8674 35.4322 79.6837 35.4322 81.7983C35.4322 83.9195 35.0311 85.7424 34.229 87.267C33.4336 88.7917 32.2901 89.9616 30.7987 90.777C29.3138 91.5923 27.5373 92 25.4691 92ZM22.5558 88.3111H25.2901C26.5629 88.3111 27.6334 88.0857 28.5018 87.6349C29.3768 87.1776 30.033 86.4716 30.4705 85.517C30.9147 84.5559 31.1367 83.3163 31.1367 81.7983C31.1367 80.2936 30.9147 79.0639 30.4705 78.1094C30.033 77.1548 29.3801 76.4522 28.5117 76.0014C27.6433 75.5507 26.5728 75.3253 25.3001 75.3253H22.5558V88.3111ZM38.6214 92V71.6364H52.343V75.1861H42.9268V80.0384H51.6371V83.5881H42.9268V88.4503H52.3828V92H38.6214ZM55.766 71.6364H61.0756L66.6836 85.3182H66.9222L72.5302 71.6364H77.8398V92H73.6637V78.7457H73.4947L68.2248 91.9006H65.381L60.1112 78.696H59.9421V92H55.766V71.6364ZM100.1 81.8182C100.1 84.0388 99.6792 85.928 98.8374 87.4858C98.0021 89.0436 96.862 90.2334 95.4169 91.0554C93.9785 91.8707 92.361 92.2784 90.5646 92.2784C88.755 92.2784 87.1309 91.8674 85.6925 91.0455C84.254 90.2235 83.1172 89.0336 82.282 87.4759C81.4467 85.9181 81.0291 84.0322 81.0291 81.8182C81.0291 79.5975 81.4467 77.7083 82.282 76.1506C83.1172 74.5928 84.254 73.4062 85.6925 72.5909C87.1309 71.7689 88.755 71.358 90.5646 71.358C92.361 71.358 93.9785 71.7689 95.4169 72.5909C96.862 73.4062 98.0021 74.5928 98.8374 76.1506C99.6792 77.7083 100.1 79.5975 100.1 81.8182ZM95.7351 81.8182C95.7351 80.3797 95.5197 79.1667 95.0888 78.179C94.6645 77.1913 94.0646 76.4422 93.2891 75.9318C92.5135 75.4214 91.6054 75.1662 90.5646 75.1662C89.5239 75.1662 88.6158 75.4214 87.8402 75.9318C87.0646 76.4422 86.4614 77.1913 86.0305 78.179C85.6063 79.1667 85.3942 80.3797 85.3942 81.8182C85.3942 83.2566 85.6063 84.4697 86.0305 85.4574C86.4614 86.4451 87.0646 87.1941 87.8402 87.7045C88.6158 88.215 89.5239 88.4702 90.5646 88.4702C91.6054 88.4702 92.5135 88.215 93.2891 87.7045C94.0646 87.1941 94.6645 86.4451 95.0888 85.4574C95.5197 84.4697 95.7351 83.2566 95.7351 81.8182Z"/>
</mask>
<path d="M25.4691 92H18.2504V71.6364H25.5288C27.5771 71.6364 29.3403 72.044 30.8185 72.8594C32.2968 73.6681 33.4336 74.8314 34.229 76.3494C35.0311 77.8674 35.4322 79.6837 35.4322 81.7983C35.4322 83.9195 35.0311 85.7424 34.229 87.267C33.4336 88.7917 32.2901 89.9616 30.7987 90.777C29.3138 91.5923 27.5373 92 25.4691 92ZM22.5558 88.3111H25.2901C26.5629 88.3111 27.6334 88.0857 28.5018 87.6349C29.3768 87.1776 30.033 86.4716 30.4705 85.517C30.9147 84.5559 31.1367 83.3163 31.1367 81.7983C31.1367 80.2936 30.9147 79.0639 30.4705 78.1094C30.033 77.1548 29.3801 76.4522 28.5117 76.0014C27.6433 75.5507 26.5728 75.3253 25.3001 75.3253H22.5558V88.3111ZM38.6214 92V71.6364H52.343V75.1861H42.9268V80.0384H51.6371V83.5881H42.9268V88.4503H52.3828V92H38.6214ZM55.766 71.6364H61.0756L66.6836 85.3182H66.9222L72.5302 71.6364H77.8398V92H73.6637V78.7457H73.4947L68.2248 91.9006H65.381L60.1112 78.696H59.9421V92H55.766V71.6364ZM100.1 81.8182C100.1 84.0388 99.6792 85.928 98.8374 87.4858C98.0021 89.0436 96.862 90.2334 95.4169 91.0554C93.9785 91.8707 92.361 92.2784 90.5646 92.2784C88.755 92.2784 87.1309 91.8674 85.6925 91.0455C84.254 90.2235 83.1172 89.0336 82.282 87.4759C81.4467 85.9181 81.0291 84.0322 81.0291 81.8182C81.0291 79.5975 81.4467 77.7083 82.282 76.1506C83.1172 74.5928 84.254 73.4062 85.6925 72.5909C87.1309 71.7689 88.755 71.358 90.5646 71.358C92.361 71.358 93.9785 71.7689 95.4169 72.5909C96.862 73.4062 98.0021 74.5928 98.8374 76.1506C99.6792 77.7083 100.1 79.5975 100.1 81.8182ZM95.7351 81.8182C95.7351 80.3797 95.5197 79.1667 95.0888 78.179C94.6645 77.1913 94.0646 76.4422 93.2891 75.9318C92.5135 75.4214 91.6054 75.1662 90.5646 75.1662C89.5239 75.1662 88.6158 75.4214 87.8402 75.9318C87.0646 76.4422 86.4614 77.1913 86.0305 78.179C85.6063 79.1667 85.3942 80.3797 85.3942 81.8182C85.3942 83.2566 85.6063 84.4697 86.0305 85.4574C86.4614 86.4451 87.0646 87.1941 87.8402 87.7045C88.6158 88.215 89.5239 88.4702 90.5646 88.4702C91.6054 88.4702 92.5135 88.215 93.2891 87.7045C94.0646 87.1941 94.6645 86.4451 95.0888 85.4574C95.5197 84.4697 95.7351 83.2566 95.7351 81.8182Z" fill="white"/>
<path d="M18.2504 92H17.2504V93H18.2504V92ZM18.2504 71.6364V70.6364H17.2504V71.6364H18.2504ZM30.8185 72.8594L30.3356 73.735L30.3386 73.7367L30.8185 72.8594ZM34.229 76.3494L33.3433 76.8136L33.3449 76.8166L34.229 76.3494ZM34.229 87.267L33.344 86.8015L33.3425 86.8045L34.229 87.267ZM30.7987 90.777L30.319 89.8995L30.3173 89.9004L30.7987 90.777ZM22.5558 88.3111H21.5558V89.3111H22.5558V88.3111ZM28.5018 87.6349L28.9625 88.5225L28.965 88.5212L28.5018 87.6349ZM30.4705 85.517L29.5627 85.0976L29.5615 85.1004L30.4705 85.517ZM30.4705 78.1094L29.5614 78.526L29.5639 78.5312L30.4705 78.1094ZM28.5117 76.0014L28.9724 75.1139L28.9724 75.1139L28.5117 76.0014ZM22.5558 75.3253V74.3253H21.5558V75.3253H22.5558ZM25.4691 91H18.2504V93H25.4691V91ZM19.2504 92V71.6364H17.2504V92H19.2504ZM18.2504 72.6364H25.5288V70.6364H18.2504V72.6364ZM25.5288 72.6364C27.444 72.6364 29.0337 73.017 30.3356 73.735L31.3015 71.9837C29.6469 71.0711 27.7102 70.6364 25.5288 70.6364V72.6364ZM30.3386 73.7367C31.6406 74.449 32.6377 75.4671 33.3433 76.8136L35.1148 75.8853C34.2295 74.1957 32.9529 72.8872 31.2985 71.9821L30.3386 73.7367ZM33.3449 76.8166C34.0552 78.161 34.4322 79.8094 34.4322 81.7983H36.4322C36.4322 79.5581 36.007 77.5738 35.1132 75.8823L33.3449 76.8166ZM34.4322 81.7983C34.4322 83.7943 34.0551 85.4499 33.344 86.8015L35.1141 87.7326C36.0072 86.0349 36.4322 84.0448 36.4322 81.7983H34.4322ZM33.3425 86.8045C32.6374 88.1558 31.6346 89.1803 30.319 89.8995L31.2783 91.6544C32.9457 90.743 34.2297 89.4276 35.1156 87.7296L33.3425 86.8045ZM30.3173 89.9004C29.0092 90.6187 27.4059 91 25.4691 91V93C27.6687 93 29.6184 92.5659 31.28 91.6535L30.3173 89.9004ZM22.5558 89.3111H25.2901V87.3111H22.5558V89.3111ZM25.2901 89.3111C26.6766 89.3111 27.9155 89.066 28.9625 88.5225L28.0411 86.7474C27.3513 87.1054 26.4491 87.3111 25.2901 87.3111V89.3111ZM28.965 88.5212C30.0495 87.9543 30.856 87.0762 31.3796 85.9337L29.5615 85.1004C29.2101 85.867 28.704 86.4009 28.0385 86.7487L28.965 88.5212ZM31.3783 85.9365C31.9036 84.7996 32.1367 83.4029 32.1367 81.7983H30.1367C30.1367 83.2296 29.9257 84.3121 29.5627 85.0976L31.3783 85.9365ZM32.1367 81.7983C32.1367 80.2059 31.9033 78.8183 31.3772 77.6875L29.5639 78.5312C29.926 79.3095 30.1367 80.3812 30.1367 81.7983H32.1367ZM31.3796 77.6927C30.8565 76.5515 30.0535 75.675 28.9724 75.1139L28.051 76.889C28.7067 77.2293 29.2095 77.7582 29.5615 78.526L31.3796 77.6927ZM28.9724 75.1139C27.9254 74.5704 26.6865 74.3253 25.3001 74.3253V76.3253C26.4591 76.3253 27.3613 76.5309 28.051 76.889L28.9724 75.1139ZM25.3001 74.3253H22.5558V76.3253H25.3001V74.3253ZM21.5558 75.3253V88.3111H23.5558V75.3253H21.5558ZM38.6214 92H37.6214V93H38.6214V92ZM38.6214 71.6364V70.6364H37.6214V71.6364H38.6214ZM52.343 71.6364H53.343V70.6364H52.343V71.6364ZM52.343 75.1861V76.1861H53.343V75.1861H52.343ZM42.9268 75.1861V74.1861H41.9268V75.1861H42.9268ZM42.9268 80.0384H41.9268V81.0384H42.9268V80.0384ZM51.6371 80.0384H52.6371V79.0384H51.6371V80.0384ZM51.6371 83.5881V84.5881H52.6371V83.5881H51.6371ZM42.9268 83.5881V82.5881H41.9268V83.5881H42.9268ZM42.9268 88.4503H41.9268V89.4503H42.9268V88.4503ZM52.3828 88.4503H53.3828V87.4503H52.3828V88.4503ZM52.3828 92V93H53.3828V92H52.3828ZM39.6214 92V71.6364H37.6214V92H39.6214ZM38.6214 72.6364H52.343V70.6364H38.6214V72.6364ZM51.343 71.6364V75.1861H53.343V71.6364H51.343ZM52.343 74.1861H42.9268V76.1861H52.343V74.1861ZM41.9268 75.1861V80.0384H43.9268V75.1861H41.9268ZM42.9268 81.0384H51.6371V79.0384H42.9268V81.0384ZM50.6371 80.0384V83.5881H52.6371V80.0384H50.6371ZM51.6371 82.5881H42.9268V84.5881H51.6371V82.5881ZM41.9268 83.5881V88.4503H43.9268V83.5881H41.9268ZM42.9268 89.4503H52.3828V87.4503H42.9268V89.4503ZM51.3828 88.4503V92H53.3828V88.4503H51.3828ZM52.3828 91H38.6214V93H52.3828V91ZM55.766 71.6364V70.6364H54.766V71.6364H55.766ZM61.0756 71.6364L62.0009 71.2571L61.7465 70.6364H61.0756V71.6364ZM66.6836 85.3182L65.7583 85.6974L66.0127 86.3182H66.6836V85.3182ZM66.9222 85.3182V86.3182H67.5931L67.8475 85.6974L66.9222 85.3182ZM72.5302 71.6364V70.6364H71.8593L71.6049 71.2571L72.5302 71.6364ZM77.8398 71.6364H78.8398V70.6364H77.8398V71.6364ZM77.8398 92V93H78.8398V92H77.8398ZM73.6637 92H72.6637V93H73.6637V92ZM73.6637 78.7457H74.6637V77.7457H73.6637V78.7457ZM73.4947 78.7457V77.7457H72.818L72.5664 78.3739L73.4947 78.7457ZM68.2248 91.9006V92.9006H68.9014L69.1531 92.2724L68.2248 91.9006ZM65.381 91.9006L64.4523 92.2712L64.7034 92.9006H65.381V91.9006ZM60.1112 78.696L61.0399 78.3254L60.7888 77.696H60.1112V78.696ZM59.9421 78.696V77.696H58.9421V78.696H59.9421ZM59.9421 92V93H60.9421V92H59.9421ZM55.766 92H54.766V93H55.766V92ZM55.766 72.6364H61.0756V70.6364H55.766V72.6364ZM60.1503 72.0156L65.7583 85.6974L67.6089 84.9389L62.0009 71.2571L60.1503 72.0156ZM66.6836 86.3182H66.9222V84.3182H66.6836V86.3182ZM67.8475 85.6974L73.4555 72.0156L71.6049 71.2571L65.9969 84.9389L67.8475 85.6974ZM72.5302 72.6364H77.8398V70.6364H72.5302V72.6364ZM76.8398 71.6364V92H78.8398V71.6364H76.8398ZM77.8398 91H73.6637V93H77.8398V91ZM74.6637 92V78.7457H72.6637V92H74.6637ZM73.6637 77.7457H73.4947V79.7457H73.6637V77.7457ZM72.5664 78.3739L67.2965 91.5287L69.1531 92.2724L74.423 79.1176L72.5664 78.3739ZM68.2248 90.9006H65.381V92.9006H68.2248V90.9006ZM66.3098 91.5299L61.0399 78.3254L59.1824 79.0667L64.4523 92.2712L66.3098 91.5299ZM60.1112 77.696H59.9421V79.696H60.1112V77.696ZM58.9421 78.696V92H60.9421V78.696H58.9421ZM59.9421 91H55.766V93H59.9421V91ZM56.766 92V71.6364H54.766V92H56.766ZM98.8374 87.4858L97.9576 87.0104L97.956 87.0133L98.8374 87.4858ZM95.4169 91.0554L95.91 91.9254L95.9113 91.9246L95.4169 91.0554ZM85.6925 91.0455L86.1886 90.1772L85.6925 91.0455ZM82.282 87.4759L81.4006 87.9484L81.4006 87.9484L82.282 87.4759ZM82.282 76.1506L83.1633 76.6231L83.1633 76.6231L82.282 76.1506ZM85.6925 72.5909L86.1856 73.4609L86.1886 73.4592L85.6925 72.5909ZM95.4169 72.5909L94.9208 73.4592L94.9255 73.4618L95.4169 72.5909ZM98.8374 76.1506L97.956 76.6231L97.9576 76.626L98.8374 76.1506ZM95.0888 78.179L94.1699 78.5736L94.1722 78.5788L95.0888 78.179ZM93.2891 75.9318L92.7393 76.7671L92.7393 76.7671L93.2891 75.9318ZM87.8402 75.9318L88.3899 76.7671L88.3899 76.7671L87.8402 75.9318ZM86.0305 78.179L85.1139 77.7791L85.1117 77.7843L86.0305 78.179ZM86.0305 85.4574L85.1117 85.8521L85.114 85.8572L86.0305 85.4574ZM87.8402 87.7045L88.3899 86.8692L88.3899 86.8692L87.8402 87.7045ZM93.2891 87.7045L92.7393 86.8692L92.7393 86.8692L93.2891 87.7045ZM95.0888 85.4574L94.1722 85.0575L94.17 85.0627L95.0888 85.4574ZM99.1001 81.8182C99.1001 83.9142 98.703 85.6312 97.9576 87.0104L99.7171 87.9612C100.655 86.2249 101.1 84.1634 101.1 81.8182H99.1001ZM97.956 87.0133C97.204 88.416 96.1933 89.4633 94.9225 90.1862L95.9113 91.9246C97.5306 91.0035 98.8003 89.6712 99.7187 87.9583L97.956 87.0133ZM94.9238 90.1854C93.6485 90.9083 92.2036 91.2784 90.5646 91.2784V93.2784C92.5185 93.2784 94.3084 92.8332 95.91 91.9254L94.9238 90.1854ZM90.5646 91.2784C88.9125 91.2784 87.4622 90.905 86.1886 90.1772L85.1963 91.9137C86.7996 92.8299 88.5975 93.2784 90.5646 93.2784V91.2784ZM86.1886 90.1772C84.9242 89.4547 83.916 88.4072 83.1633 87.0033L81.4006 87.9484C82.3184 89.66 83.5839 90.9923 85.1963 91.9137L86.1886 90.1772ZM83.1633 87.0033C82.4232 85.6231 82.0291 83.9082 82.0291 81.8182H80.0291C80.0291 84.1562 80.4702 86.2131 81.4006 87.9484L83.1633 87.0033ZM82.0291 81.8182C82.0291 79.721 82.4234 78.003 83.1633 76.6231L81.4006 75.678C80.47 77.4137 80.0291 79.4741 80.0291 81.8182H82.0291ZM83.1633 76.6231C83.9157 75.2198 84.9229 74.1766 86.1856 73.4609L85.1994 71.7209C83.5851 72.6359 82.3187 73.9658 81.4006 75.678L83.1633 76.6231ZM86.1886 73.4592C87.4622 72.7314 88.9125 72.358 90.5646 72.358V70.358C88.5975 70.358 86.7996 70.8065 85.1963 71.7227L86.1886 73.4592ZM90.5646 72.358C92.2021 72.358 93.646 72.7307 94.9208 73.4592L95.913 71.7227C94.3109 70.8072 92.5199 70.358 90.5646 70.358V72.358ZM94.9255 73.4618C96.1946 74.1779 97.2043 75.221 97.956 76.6231L99.7187 75.678C98.8 73.9646 97.5294 72.6346 95.9083 71.72L94.9255 73.4618ZM97.9576 76.626C98.703 78.0052 99.1001 79.7221 99.1001 81.8182H101.1C101.1 79.4729 100.655 77.4115 99.7171 75.6751L97.9576 76.626ZM96.7351 81.8182C96.7351 80.2858 96.5064 78.9276 96.0054 77.7791L94.1722 78.5788C94.5329 79.4057 94.7351 80.4737 94.7351 81.8182H96.7351ZM96.0076 77.7843C95.5186 76.6459 94.8025 75.7307 93.8388 75.0965L92.7393 76.7671C93.3268 77.1538 93.8105 77.7367 94.17 78.5736L96.0076 77.7843ZM93.8388 75.0965C92.8807 74.466 91.7763 74.1662 90.5646 74.1662V76.1662C91.4344 76.1662 92.1463 76.3768 92.7393 76.7671L93.8388 75.0965ZM90.5646 74.1662C89.353 74.1662 88.2485 74.466 87.2905 75.0965L88.3899 76.7671C88.983 76.3768 89.6949 76.1662 90.5646 76.1662V74.1662ZM87.2905 75.0965C86.3283 75.7297 85.6096 76.643 85.114 77.7791L86.9471 78.5788C87.3132 77.7396 87.801 77.1548 88.3899 76.7671L87.2905 75.0965ZM85.1117 77.7843C84.6191 78.9312 84.3942 80.2874 84.3942 81.8182H86.3942C86.3942 80.472 86.5935 79.4021 86.9494 78.5736L85.1117 77.7843ZM84.3942 81.8182C84.3942 83.3489 84.6191 84.7052 85.1117 85.852L86.9494 85.0627C86.5935 84.2342 86.3942 83.1643 86.3942 81.8182H84.3942ZM85.114 85.8572C85.6096 86.9934 86.3283 87.9067 87.2905 88.5399L88.3899 86.8692C87.801 86.4816 87.3132 85.8968 86.9471 85.0575L85.114 85.8572ZM87.2905 88.5399C88.2485 89.1704 89.353 89.4702 90.5646 89.4702V87.4702C89.6949 87.4702 88.983 87.2595 88.3899 86.8692L87.2905 88.5399ZM90.5646 89.4702C91.7763 89.4702 92.8807 89.1704 93.8388 88.5399L92.7393 86.8692C92.1463 87.2595 91.4344 87.4702 90.5646 87.4702V89.4702ZM93.8388 88.5399C94.8025 87.9057 95.5186 86.9905 96.0076 85.852L94.17 85.0627C93.8105 85.8997 93.3268 86.4826 92.7393 86.8692L93.8388 88.5399ZM96.0054 85.8572C96.5064 84.7088 96.7351 83.3506 96.7351 81.8182H94.7351C94.7351 83.1627 94.5329 84.2306 94.1722 85.0575L96.0054 85.8572Z" fill="#1E7447" mask="url(#path-5-outside-1_1078_41)"/>
</g>
<defs>
<filter id="filter0_i_1078_41" x="9" y="54" width="99" height="54" filterUnits="userSpaceOnUse" color-interpolation-filters="sRGB">
<feFlood flood-opacity="0" result="BackgroundImageFix"/>
<feBlend mode="normal" in="SourceGraphic" in2="BackgroundImageFix" result="shape"/>
<feColorMatrix in="SourceAlpha" type="matrix" values="0 0 0 0 0 0 0 0 0 0 0 0 0 0 0 0 0 0 127 0" result="hardAlpha"/>
<feOffset dy="-2"/>
<feGaussianBlur stdDeviation="2"/>
<feComposite in2="hardAlpha" operator="arithmetic" k2="-1" k3="1"/>
<feColorMatrix type="matrix" values="0 0 0 0 1 0 0 0 0 1 0 0 0 0 1 0 0 0 0.5 0"/>
<feBlend mode="normal" in2="shape" result="effect1_innerShadow_1078_41"/>
</filter>
<filter id="filter1_d_1078_41" x="15.25" y="70.3579" width="87.8506" height="26.9204" filterUnits="userSpaceOnUse" color-interpolation-filters="sRGB">
<feFlood flood-opacity="0" result="BackgroundImageFix"/>
<feColorMatrix in="SourceAlpha" type="matrix" values="0 0 0 0 0 0 0 0 0 0 0 0 0 0 0 0 0 0 127 0" result="hardAlpha"/>
<feOffset dy="2"/>
<feGaussianBlur stdDeviation="1.5"/>
<feComposite in2="hardAlpha" operator="out"/>
<feColorMatrix type="matrix" values="0 0 0 0 0 0 0 0 0 0 0 0 0 0 0 0 0 0 0.12 0"/>
<feBlend mode="normal" in2="BackgroundImageFix" result="effect1_dropShadow_1078_41"/>
<feBlend mode="normal" in="SourceGraphic" in2="effect1_dropShadow_1078_41" result="shape"/>
</filter>
<linearGradient id="paint0_linear_1078_41" x1="58" y1="9" x2="58" y2="108" gradientUnits="userSpaceOnUse">
<stop stop-color="#F4F4F4"/>
<stop offset="1" stop-color="white"/>
</linearGradient>
<linearGradient id="paint1_linear_1078_41" x1="58.5" y1="56" x2="58.5" y2="108" gradientUnits="userSpaceOnUse">
<stop stop-color="#1E7447"/>
<stop offset="1" stop-color="#2F8A58"/>
</linearGradient>
</defs>
</svg>
