<svg width="18" height="18" viewBox="0 0 18 18" fill="none" xmlns="http://www.w3.org/2000/svg"><path fill-rule="evenodd" clip-rule="evenodd" d="M1 2C1 1.44772 1.44772 1 2 1H7C7.55228 1 8 1.44772 8 2C8 2.55228 7.55228 3 7 3H3V7C3 7.55228 2.55228 8 2 8C1.44772 8 1 7.55228 1 7V2Z" fill="currentColor"></path><path fill-rule="evenodd" clip-rule="evenodd" d="M10 2C10 1.44772 10.4477 1 11 1H16C16.5523 1 17 1.44772 17 2V7C17 7.55228 16.5523 8 16 8C15.4477 8 15 7.55228 15 7V3H11C10.4477 3 10 2.55228 10 2Z" fill="currentColor"></path><path fill-rule="evenodd" clip-rule="evenodd" d="M16 10C16.5523 10 17 10.4477 17 11V16C17 16.5523 16.5523 17 16 17H11C10.4477 17 10 16.5523 10 16C10 15.4477 10.4477 15 11 15H15V11C15 10.4477 15.4477 10 16 10Z" fill="currentColor"></path><path fill-rule="evenodd" clip-rule="evenodd" d="M2 10C2.55228 10 3 10.4477 3 11V15H7C7.55228 15 8 15.4477 8 16C8 16.5523 7.55228 17 7 17H2C1.44772 17 1 16.5523 1 16V11C1 10.4477 1.44772 10 2 10Z" fill="currentColor"></path><path d="M2 2L6.5 6.5" stroke="currentColor" stroke-width="2" stroke-linecap="round"></path><path d="M16 2L11.5 6.5" stroke="currentColor" stroke-width="2" stroke-linecap="round"></path><path d="M16 16L11.5 11.5" stroke="currentColor" stroke-width="2" stroke-linecap="round"></path><path d="M2 16L6.5 11.5" stroke="currentColor" stroke-width="2" stroke-linecap="round"></path></svg>