<svg width="128" height="128" viewBox="0 0 128 128" fill="none" xmlns="http://www.w3.org/2000/svg">
<g filter="url(#filter0_i_794_21)">
<path d="M22 14C22 9.02944 26.0294 5 31 5H72.8581C76.7941 5 80.5724 6.54706 83.3781 9.30752L105.221 30.7984C108.278 33.8061 110 37.9152 110 42.2037V113C110 117.971 105.971 122 101 122H31C26.0294 122 22 117.971 22 113V14Z" fill="url(#paint0_linear_794_21)"/>
</g>
<path d="M109.5 42.2037V113C109.5 117.694 105.694 121.5 101 121.5H31C26.3056 121.5 22.5 117.694 22.5 113V14C22.5 9.30558 26.3056 5.5 31 5.5H72.8581C76.6629 5.5 80.3153 6.99549 83.0275 9.66393L104.871 31.1549C107.832 34.0686 109.5 38.0492 109.5 42.2037Z" stroke="#DADADA"/>
<g filter="url(#filter1_i_794_21)">
<rect x="4" y="49" width="79" height="51" rx="12" fill="url(#paint1_linear_794_21)"/>
</g>
<rect x="5" y="50" width="77" height="49" rx="11" stroke="#064E3B" stroke-width="2"/>
<path d="M16.1136 68.7287V65.6364H32.3608V68.7287H26.0668V86H22.4077V68.7287H16.1136ZM46.5597 71.2344C46.4669 70.366 46.0758 69.6899 45.3864 69.206C44.7036 68.7221 43.8153 68.4801 42.7216 68.4801C41.9527 68.4801 41.2931 68.5961 40.7429 68.8281C40.1927 69.0601 39.7718 69.375 39.4801 69.7727C39.1884 70.1705 39.0393 70.6245 39.0327 71.1349C39.0327 71.5592 39.1288 71.9271 39.321 72.2386C39.5199 72.5502 39.7884 72.8153 40.1264 73.0341C40.4645 73.2462 40.839 73.4252 41.25 73.571C41.661 73.7169 42.0753 73.8395 42.4929 73.9389L44.402 74.4162C45.1709 74.5952 45.91 74.8371 46.6193 75.142C47.3352 75.447 47.9749 75.8314 48.5384 76.2955C49.1084 76.7595 49.5592 77.3196 49.8906 77.9759C50.2221 78.6321 50.3878 79.401 50.3878 80.2827C50.3878 81.4759 50.0829 82.5265 49.473 83.4347C48.8632 84.3362 47.9815 85.0421 46.8281 85.5526C45.6813 86.0563 44.2926 86.3082 42.6619 86.3082C41.0777 86.3082 39.7022 86.063 38.5355 85.5724C37.3755 85.0819 36.4673 84.366 35.8111 83.4247C35.1615 82.4834 34.8101 81.3366 34.7571 79.9844H38.3864C38.4394 80.6937 38.6581 81.2836 39.0426 81.7543C39.4271 82.2249 39.9276 82.5762 40.544 82.8082C41.1671 83.0402 41.8632 83.1562 42.6321 83.1562C43.4342 83.1562 44.1368 83.0369 44.7401 82.7983C45.3499 82.553 45.8272 82.215 46.1719 81.7841C46.5166 81.3466 46.6922 80.8362 46.6989 80.2528C46.6922 79.7225 46.5365 79.285 46.2315 78.9403C45.9266 78.589 45.4991 78.2973 44.9489 78.0653C44.4053 77.8267 43.7689 77.6146 43.0398 77.429L40.723 76.8324C39.0459 76.4015 37.7202 75.7486 36.7457 74.8736C35.7779 73.992 35.294 72.822 35.294 71.3636C35.294 70.1638 35.6188 69.1132 36.2685 68.2116C36.9247 67.3101 37.8163 66.6108 38.9432 66.1136C40.0701 65.6098 41.3461 65.358 42.7713 65.358C44.2164 65.358 45.4825 65.6098 46.5696 66.1136C47.6634 66.6108 48.5218 67.3035 49.1449 68.1918C49.768 69.0734 50.0895 70.0876 50.1094 71.2344H46.5597ZM56.7589 65.6364L61.2433 73.0938H61.4023L65.9066 65.6364H70.1126L63.8384 75.8182L70.212 86H65.9364L61.4023 78.5923H61.2433L56.7092 86H52.4535L58.8867 75.8182L52.533 65.6364H56.7589Z" fill="white"/>
<defs>
<filter id="filter0_i_794_21" x="22" y="5" width="88" height="117" filterUnits="userSpaceOnUse" color-interpolation-filters="sRGB">
<feFlood flood-opacity="0" result="BackgroundImageFix"/>
<feBlend mode="normal" in="SourceGraphic" in2="BackgroundImageFix" result="shape"/>
<feColorMatrix in="SourceAlpha" type="matrix" values="0 0 0 0 0 0 0 0 0 0 0 0 0 0 0 0 0 0 127 0" result="hardAlpha"/>
<feOffset/>
<feGaussianBlur stdDeviation="4"/>
<feComposite in2="hardAlpha" operator="arithmetic" k2="-1" k3="1"/>
<feColorMatrix type="matrix" values="0 0 0 0 1 0 0 0 0 1 0 0 0 0 1 0 0 0 1 0"/>
<feBlend mode="normal" in2="shape" result="effect1_innerShadow_794_21"/>
</filter>
<filter id="filter1_i_794_21" x="4" y="47" width="79" height="53" filterUnits="userSpaceOnUse" color-interpolation-filters="sRGB">
<feFlood flood-opacity="0" result="BackgroundImageFix"/>
<feBlend mode="normal" in="SourceGraphic" in2="BackgroundImageFix" result="shape"/>
<feColorMatrix in="SourceAlpha" type="matrix" values="0 0 0 0 0 0 0 0 0 0 0 0 0 0 0 0 0 0 127 0" result="hardAlpha"/>
<feOffset dy="-2"/>
<feGaussianBlur stdDeviation="2"/>
<feComposite in2="hardAlpha" operator="arithmetic" k2="-1" k3="1"/>
<feColorMatrix type="matrix" values="0 0 0 0 1 0 0 0 0 1 0 0 0 0 1 0 0 0 0.5 0"/>
<feBlend mode="normal" in2="shape" result="effect1_innerShadow_794_21"/>
</filter>
<linearGradient id="paint0_linear_794_21" x1="66" y1="5" x2="66" y2="122" gradientUnits="userSpaceOnUse">
<stop stop-color="#EBECE9"/>
<stop offset="1" stop-color="#C2C2C2"/>
</linearGradient>
<linearGradient id="paint1_linear_794_21" x1="43.5" y1="49" x2="43.5" y2="100" gradientUnits="userSpaceOnUse">
<stop stop-color="#059669"/>
<stop offset="1" stop-color="#065F46"/>
</linearGradient>
</defs>
</svg>
